{
    "asset" : {
        "generator" : "Khronos glTF Blender I/O v3.2.43",
        "version" : "2.0"
    },
    "scene" : 0,
    "scenes" : [
        {
            "name" : "Scene",
            "nodes" : [
                0
            ]
        }
    ],
    "nodes" : [
        {
            "mesh" : 0,
            "name" : "Cube.002",
            "scale" : [
                1.7241545915603638,
                0.0320042222738266,
                0.640084445476532
            ],
            "translation" : [
                0.023058533668518066,
                0.46946030855178833,
                2.718658447265625
            ]
        }
    ],
    "materials" : [
        {
            "doubleSided" : true,
            "name" : "Material.002",
            "pbrMetallicRoughness" : {
                "baseColorFactor" : [
                    0.15241946280002594,
                    0.15241946280002594,
                    0.15241946280002594,
                    1
                ],
                "metallicFactor" : 0,
                "roughnessFactor" : 0.34090909361839294
            }
        },
        {
            "doubleSided" : true,
            "name" : "default.001",
            "pbrMetallicRoughness" : {
                "baseColorTexture" : {
                    "index" : 0
                },
                "metallicFactor" : 0,
                "roughnessFactor" : 0.5
            }
        }
    ],
    "meshes" : [
        {
            "name" : "Cube.002",
            "primitives" : [
                {
                    "attributes" : {
                        "POSITION" : 0,
                        "NORMAL" : 1,
                        "TEXCOORD_0" : 2
                    },
                    "indices" : 3,
                    "material" : 0
                },
                {
                    "attributes" : {
                        "POSITION" : 4,
                        "NORMAL" : 5,
                        "TEXCOORD_0" : 6
                    },
                    "indices" : 7,
                    "material" : 1
                }
            ]
        }
    ],
    "textures" : [
        {
            "sampler" : 0,
            "source" : 0
        }
    ],
    "images" : [
        {
            "bufferView" : 8,
            "mimeType" : "image/jpeg",
            "name" : "meb"
        }
    ],
    "accessors" : [
        {
            "bufferView" : 0,
            "componentType" : 5126,
            "count" : 798,
            "max" : [
                1.5952564477920532,
                14.445525169372559,
                1.6758582592010498
            ],
            "min" : [
                -0.6052571535110474,
                -14.877652168273926,
                -2.1418163776397705
            ],
            "type" : "VEC3"
        },
        {
            "bufferView" : 1,
            "componentType" : 5126,
            "count" : 798,
            "type" : "VEC3"
        },
        {
            "bufferView" : 2,
            "componentType" : 5126,
            "count" : 798,
            "type" : "VEC2"
        },
        {
            "bufferView" : 3,
            "componentType" : 5123,
            "count" : 1092,
            "type" : "SCALAR"
        },
        {
            "bufferView" : 4,
            "componentType" : 5126,
            "count" : 165,
            "max" : [
                1.6017528772354126,
                14.230042457580566,
                1.6758582592010498
            ],
            "min" : [
                -0.6052571535110474,
                -12.96610164642334,
                -2.1046864986419678
            ],
            "type" : "VEC3"
        },
        {
            "bufferView" : 5,
            "componentType" : 5126,
            "count" : 165,
            "type" : "VEC3"
        },
        {
            "bufferView" : 6,
            "componentType" : 5126,
            "count" : 165,
            "type" : "VEC2"
        },
        {
            "bufferView" : 7,
            "componentType" : 5123,
            "count" : 264,
            "type" : "SCALAR"
        }
    ],
    "bufferViews" : [
        {
            "buffer" : 0,
            "byteLength" : 9576,
            "byteOffset" : 0
        },
        {
            "buffer" : 0,
            "byteLength" : 9576,
            "byteOffset" : 9576
        },
        {
            "buffer" : 0,
            "byteLength" : 6384,
            "byteOffset" : 19152
        },
        {
            "buffer" : 0,
            "byteLength" : 2184,
            "byteOffset" : 25536
        },
        {
            "buffer" : 0,
            "byteLength" : 1980,
            "byteOffset" : 27720
        },
        {
            "buffer" : 0,
            "byteLength" : 1980,
            "byteOffset" : 29700
        },
        {
            "buffer" : 0,
            "byteLength" : 1320,
            "byteOffset" : 31680
        },
        {
            "buffer" : 0,
            "byteLength" : 528,
            "byteOffset" : 33000
        },
        {
            "buffer" : 0,
            "byteLength" : 265839,
            "byteOffset" : 33528
        }
    ],
    "samplers" : [
        {
            "magFilter" : 9729,
            "minFilter" : 9987
        }
    ],
    "buffers" : [
        {
            "byteLength" : 299368,
            "uri" : "data:application/octet-stream;base64,"
        }
    ]
}
