{
    "asset" : {
        "generator" : "Khronos glTF Blender I/O v3.4.50",
        "version" : "2.0"
    },
    "extensionsUsed" : [
        "KHR_materials_specular",
        "KHR_materials_ior",
        "KHR_texture_transform"
    ],
    "extensionsRequired" : [
        "KHR_texture_transform"
    ],
    "scene" : 0,
    "scenes" : [
        {
            "name" : "Scene",
            "nodes" : [
                4
            ]
        }
    ],
    "nodes" : [
        {
            "mesh" : 0,
            "name" : "bg",
            "translation" : [
                -0.0011245310306549072,
                0.4076535701751709,
                -0.22921247780323029
            ]
        },
        {
            "mesh" : 1,
            "name" : "Cube",
            "scale" : [
                0.5,
                1,
                1
            ],
            "translation" : [
                -0.19705602526664734,
                -0.19194447994232178,
                0.0201871395111084
            ]
        },
        {
            "children" : [
                1
            ],
            "mesh" : 2,
            "name" : "door",
            "translation" : [
                0.1981586217880249,
                0.40479910373687744,
                0.25389909744262695
            ]
        },
        {
            "children" : [
                0,
                2
            ],
            "mesh" : 3,
            "name" : "Cube.005",
            "translation" : [
                -0.002508789300918579,
                0.7668328285217285,
                -0.0029036840423941612
            ]
        },
        {
            "children" : [
                3
            ],
            "name" : "Wardrobe-Basia Standmebel"
        }
    ],
    "materials" : [
        {
            "doubleSided" : true,
            "name" : "Matal solid paint white",
            "pbrMetallicRoughness" : {
                "baseColorFactor" : [
                    0.800000011920929,
                    0.800000011920929,
                    0.800000011920929,
                    1
                ],
                "metallicFactor" : 0,
                "roughnessFactor" : 0.5
            }
        },
        {
            "doubleSided" : true,
            "extensions" : {
                "KHR_materials_specular" : {
                    "specularColorFactor" : [
                        0,
                        0,
                        0
                    ]
                },
                "KHR_materials_ior" : {
                    "ior" : 1.4500000476837158
                }
            },
            "name" : "Sandblasted silver metal",
            "pbrMetallicRoughness" : {
                "baseColorFactor" : [
                    0.800000011920929,
                    0.800000011920929,
                    0.800000011920929,
                    1
                ]
            }
        },
        {
            "doubleSided" : true,
            "name" : "Douglas 001",
            "normalTexture" : {
                "extensions" : {
                    "KHR_texture_transform" : {
                        "offset" : [
                            0,
                            -3.8999991416931152
                        ],
                        "scale" : [
                            0.5000001192092896,
                            4.899999141693115
                        ]
                    }
                },
                "index" : 0
            },
            "pbrMetallicRoughness" : {
                "baseColorTexture" : {
                    "extensions" : {
                        "KHR_texture_transform" : {
                            "offset" : [
                                0,
                                -3.8999991416931152
                            ],
                            "scale" : [
                                0.5000001192092896,
                                4.899999141693115
                            ]
                        }
                    },
                    "index" : 1
                },
                "metallicFactor" : 0
            }
        },
        {
            "name" : "Wenge dark oak",
            "normalTexture" : {
                "index" : 2
            },
            "pbrMetallicRoughness" : {
                "baseColorTexture" : {
                    "index" : 3
                },
                "metallicFactor" : 0
            }
        }
    ],
    "meshes" : [
        {
            "name" : "Cube.018",
            "primitives" : [
                {
                    "attributes" : {
                        "POSITION" : 0,
                        "TEXCOORD_0" : 1,
                        "NORMAL" : 2
                    },
                    "indices" : 3,
                    "material" : 0
                }
            ]
        },
        {
            "name" : "Cube.020",
            "primitives" : [
                {
                    "attributes" : {
                        "POSITION" : 4,
                        "TEXCOORD_0" : 5,
                        "TEXCOORD_1" : 6,
                        "NORMAL" : 7
                    },
                    "indices" : 8,
                    "material" : 1
                }
            ]
        },
        {
            "name" : "Cube.013",
            "primitives" : [
                {
                    "attributes" : {
                        "POSITION" : 9,
                        "TEXCOORD_0" : 10,
                        "NORMAL" : 11
                    },
                    "indices" : 12,
                    "material" : 2
                }
            ]
        },
        {
            "name" : "Cube.006",
            "primitives" : [
                {
                    "attributes" : {
                        "POSITION" : 13,
                        "TEXCOORD_0" : 14,
                        "NORMAL" : 15
                    },
                    "indices" : 16,
                    "material" : 3
                }
            ]
        }
    ],
    "textures" : [
        {
            "sampler" : 0,
            "source" : 0
        },
        {
            "sampler" : 0,
            "source" : 1
        },
        {
            "sampler" : 0,
            "source" : 2
        },
        {
            "sampler" : 0,
            "source" : 3
        }
    ],
    "images" : [
        {
            "bufferView" : 13,
            "mimeType" : "image/jpeg",
            "name" : "Douglas 001_Normal"
        },
        {
            "bufferView" : 14,
            "mimeType" : "image/jpeg",
            "name" : "Douglas 001_BaseColor"
        },
        {
            "bufferView" : 19,
            "mimeType" : "image/jpeg",
            "name" : "wenge dark oak-normal"
        },
        {
            "bufferView" : 20,
            "mimeType" : "image/jpeg",
            "name" : "wenge dark oak-diffuse"
        }
    ],
    "accessors" : [
        {
            "bufferView" : 0,
            "componentType" : 5126,
            "count" : 131,
            "max" : [
                0.38749998807907104,
                1.0099999904632568,
                0.0025001505855470896
            ],
            "min" : [
                -0.38749998807907104,
                -1.0099999904632568,
                -0.0025001505855470896
            ],
            "type" : "VEC3"
        },
        {
            "bufferView" : 1,
            "componentType" : 5126,
            "count" : 131,
            "type" : "VEC2"
        },
        {
            "bufferView" : 2,
            "componentType" : 5126,
            "count" : 131,
            "type" : "VEC3"
        },
        {
            "bufferView" : 3,
            "componentType" : 5123,
            "count" : 564,
            "type" : "SCALAR"
        },
        {
            "bufferView" : 4,
            "componentType" : 5126,
            "count" : 940,
            "max" : [
                0.13299982249736786,
                0.07627660781145096,
                0.1855507642030716
            ],
            "min" : [
                -0.2822336256504059,
                -0.07817485928535461,
                -0.01018713042140007
            ],
            "type" : "VEC3"
        },
        {
            "bufferView" : 5,
            "componentType" : 5126,
            "count" : 940,
            "type" : "VEC2"
        },
        {
            "bufferView" : 6,
            "componentType" : 5126,
            "count" : 940,
            "type" : "VEC2"
        },
        {
            "bufferView" : 7,
            "componentType" : 5126,
            "count" : 940,
            "type" : "VEC3"
        },
        {
            "bufferView" : 8,
            "componentType" : 5123,
            "count" : 3432,
            "type" : "SCALAR"
        },
        {
            "bufferView" : 9,
            "componentType" : 5126,
            "count" : 256,
            "max" : [
                0.20033273100852966,
                1.024999976158142,
                0.21441887319087982
            ],
            "min" : [
                -0.5941565036773682,
                -1.024999976158142,
                -0.03141575679183006
            ],
            "type" : "VEC3"
        },
        {
            "bufferView" : 10,
            "componentType" : 5126,
            "count" : 256,
            "type" : "VEC2"
        },
        {
            "bufferView" : 11,
            "componentType" : 5126,
            "count" : 256,
            "type" : "VEC3"
        },
        {
            "bufferView" : 12,
            "componentType" : 5123,
            "count" : 990,
            "type" : "SCALAR"
        },
        {
            "bufferView" : 15,
            "componentType" : 5126,
            "count" : 864,
            "max" : [
                0.40000009536743164,
                1.4324994087219238,
                0.24389927089214325
            ],
            "min" : [
                -0.40000009536743164,
                -0.7677335739135742,
                -0.2421010285615921
            ],
            "type" : "VEC3"
        },
        {
            "bufferView" : 16,
            "componentType" : 5126,
            "count" : 864,
            "type" : "VEC2"
        },
        {
            "bufferView" : 17,
            "componentType" : 5126,
            "count" : 864,
            "type" : "VEC3"
        },
        {
            "bufferView" : 18,
            "componentType" : 5123,
            "count" : 3384,
            "type" : "SCALAR"
        }
    ],
    "bufferViews" : [
        {
            "buffer" : 0,
            "byteLength" : 1572,
            "byteOffset" : 0,
            "target" : 34962
        },
        {
            "buffer" : 0,
            "byteLength" : 1048,
            "byteOffset" : 1572,
            "target" : 34962
        },
        {
            "buffer" : 0,
            "byteLength" : 1572,
            "byteOffset" : 2620,
            "target" : 34962
        },
        {
            "buffer" : 0,
            "byteLength" : 1128,
            "byteOffset" : 4192,
            "target" : 34963
        },
        {
            "buffer" : 0,
            "byteLength" : 11280,
            "byteOffset" : 5320,
            "target" : 34962
        },
        {
            "buffer" : 0,
            "byteLength" : 7520,
            "byteOffset" : 16600,
            "target" : 34962
        },
        {
            "buffer" : 0,
            "byteLength" : 7520,
            "byteOffset" : 24120,
            "target" : 34962
        },
        {
            "buffer" : 0,
            "byteLength" : 11280,
            "byteOffset" : 31640,
            "target" : 34962
        },
        {
            "buffer" : 0,
            "byteLength" : 6864,
            "byteOffset" : 42920,
            "target" : 34963
        },
        {
            "buffer" : 0,
            "byteLength" : 3072,
            "byteOffset" : 49784,
            "target" : 34962
        },
        {
            "buffer" : 0,
            "byteLength" : 2048,
            "byteOffset" : 52856,
            "target" : 34962
        },
        {
            "buffer" : 0,
            "byteLength" : 3072,
            "byteOffset" : 54904,
            "target" : 34962
        },
        {
            "buffer" : 0,
            "byteLength" : 1980,
            "byteOffset" : 57976,
            "target" : 34963
        },
        {
            "buffer" : 0,
            "byteLength" : 10822,
            "byteOffset" : 59956
        },
        {
            "buffer" : 0,
            "byteLength" : 20210,
            "byteOffset" : 70780
        },
        {
            "buffer" : 0,
            "byteLength" : 10368,
            "byteOffset" : 90992,
            "target" : 34962
        },
        {
            "buffer" : 0,
            "byteLength" : 6912,
            "byteOffset" : 101360,
            "target" : 34962
        },
        {
            "buffer" : 0,
            "byteLength" : 10368,
            "byteOffset" : 108272,
            "target" : 34962
        },
        {
            "buffer" : 0,
            "byteLength" : 6768,
            "byteOffset" : 118640,
            "target" : 34963
        },
        {
            "buffer" : 0,
            "byteLength" : 10827,
            "byteOffset" : 125408
        },
        {
            "buffer" : 0,
            "byteLength" : 18559,
            "byteOffset" : 136236
        }
    ],
    "samplers" : [
        {
            "magFilter" : 9729,
            "minFilter" : 9987
        }
    ],
    "buffers" : [
        {
            "byteLength" : 154796,
            "uri" : "data:application/octet-stream;base64,"
        }
    ]
}
