{
    "asset" : {
        "generator" : "Khronos glTF Blender I/O v3.2.43",
        "version" : "2.0"
    },
    "scene" : 0,
    "scenes" : [
        {
            "name" : "Scene",
            "nodes" : [
                0
            ]
        }
    ],
    "nodes" : [
        {
            "mesh" : 0,
            "name" : "Cylinder.010",
            "scale" : [
                0.18887034058570862,
                0.09540905058383942,
                0.18887034058570862
            ],
            "translation" : [
                -0.451904296875,
                1.2154548168182373,
                1.9191218614578247
            ]
        }
    ],
    "animations" : [
        {
            "channels" : [
                {
                    "sampler" : 0,
                    "target" : {
                        "node" : 0,
                        "path" : "translation"
                    }
                },
                {
                    "sampler" : 1,
                    "target" : {
                        "node" : 0,
                        "path" : "rotation"
                    }
                },
                {
                    "sampler" : 2,
                    "target" : {
                        "node" : 0,
                        "path" : "scale"
                    }
                }
            ],
            "name" : "Cylinder.010",
            "samplers" : [
                {
                    "input" : 12,
                    "interpolation" : "LINEAR",
                    "output" : 13
                },
                {
                    "input" : 12,
                    "interpolation" : "LINEAR",
                    "output" : 14
                },
                {
                    "input" : 12,
                    "interpolation" : "LINEAR",
                    "output" : 15
                }
            ]
        }
    ],
    "materials" : [
        {
            "doubleSided" : true,
            "name" : "Material.005",
            "pbrMetallicRoughness" : {
                "baseColorFactor" : [
                    0.0024282161612063646,
                    0.0024282161612063646,
                    0.0018211614806205034,
                    1
                ],
                "metallicFactor" : 0,
                "roughnessFactor" : 0.5
            }
        },
        {
            "doubleSided" : true,
            "name" : "abajor",
            "pbrMetallicRoughness" : {}
        },
        {
            "doubleSided" : true,
            "name" : "black rkham",
            "pbrMetallicRoughness" : {}
        }
    ],
    "meshes" : [
        {
            "name" : "Cylinder.014",
            "primitives" : [
                {
                    "attributes" : {
                        "POSITION" : 0,
                        "NORMAL" : 1,
                        "TEXCOORD_0" : 2
                    },
                    "indices" : 3,
                    "material" : 0
                },
                {
                    "attributes" : {
                        "POSITION" : 4,
                        "NORMAL" : 5,
                        "TEXCOORD_0" : 6
                    },
                    "indices" : 7,
                    "material" : 1
                },
                {
                    "attributes" : {
                        "POSITION" : 8,
                        "NORMAL" : 9,
                        "TEXCOORD_0" : 10
                    },
                    "indices" : 11,
                    "material" : 2
                }
            ]
        }
    ],
    "accessors" : [
        {
            "bufferView" : 0,
            "componentType" : 5126,
            "count" : 197,
            "max" : [
                0.8844270706176758,
                0.596704363822937,
                0.884427011013031
            ],
            "min" : [
                -0.8844269514083862,
                -0.5967034101486206,
                -0.884427011013031
            ],
            "type" : "VEC3"
        },
        {
            "bufferView" : 1,
            "componentType" : 5126,
            "count" : 197,
            "type" : "VEC3"
        },
        {
            "bufferView" : 2,
            "componentType" : 5126,
            "count" : 197,
            "type" : "VEC2"
        },
        {
            "bufferView" : 3,
            "componentType" : 5123,
            "count" : 384,
            "type" : "SCALAR"
        },
        {
            "bufferView" : 4,
            "componentType" : 5126,
            "count" : 423,
            "max" : [
                1,
                1.0000009536743164,
                1
            ],
            "min" : [
                -1,
                -1,
                -1
            ],
            "type" : "VEC3"
        },
        {
            "bufferView" : 5,
            "componentType" : 5126,
            "count" : 423,
            "type" : "VEC3"
        },
        {
            "bufferView" : 6,
            "componentType" : 5126,
            "count" : 423,
            "type" : "VEC2"
        },
        {
            "bufferView" : 7,
            "componentType" : 5123,
            "count" : 1050,
            "type" : "SCALAR"
        },
        {
            "bufferView" : 8,
            "componentType" : 5126,
            "count" : 192,
            "max" : [
                0.555090069770813,
                -0.7169216275215149,
                0.555091381072998
            ],
            "min" : [
                -0.5550901889801025,
                -4.464606285095215,
                -0.555088996887207
            ],
            "type" : "VEC3"
        },
        {
            "bufferView" : 9,
            "componentType" : 5126,
            "count" : 192,
            "type" : "VEC3"
        },
        {
            "bufferView" : 10,
            "componentType" : 5126,
            "count" : 192,
            "type" : "VEC2"
        },
        {
            "bufferView" : 11,
            "componentType" : 5123,
            "count" : 576,
            "type" : "SCALAR"
        },
        {
            "bufferView" : 12,
            "componentType" : 5126,
            "count" : 4,
            "max" : [
                0.16666666666666666
            ],
            "min" : [
                0.041666666666666664
            ],
            "type" : "SCALAR"
        },
        {
            "bufferView" : 13,
            "componentType" : 5126,
            "count" : 4,
            "type" : "VEC3"
        },
        {
            "bufferView" : 14,
            "componentType" : 5126,
            "count" : 4,
            "type" : "VEC4"
        },
        {
            "bufferView" : 15,
            "componentType" : 5126,
            "count" : 4,
            "type" : "VEC3"
        }
    ],
    "bufferViews" : [
        {
            "buffer" : 0,
            "byteLength" : 2364,
            "byteOffset" : 0
        },
        {
            "buffer" : 0,
            "byteLength" : 2364,
            "byteOffset" : 2364
        },
        {
            "buffer" : 0,
            "byteLength" : 1576,
            "byteOffset" : 4728
        },
        {
            "buffer" : 0,
            "byteLength" : 768,
            "byteOffset" : 6304
        },
        {
            "buffer" : 0,
            "byteLength" : 5076,
            "byteOffset" : 7072
        },
        {
            "buffer" : 0,
            "byteLength" : 5076,
            "byteOffset" : 12148
        },
        {
            "buffer" : 0,
            "byteLength" : 3384,
            "byteOffset" : 17224
        },
        {
            "buffer" : 0,
            "byteLength" : 2100,
            "byteOffset" : 20608
        },
        {
            "buffer" : 0,
            "byteLength" : 2304,
            "byteOffset" : 22708
        },
        {
            "buffer" : 0,
            "byteLength" : 2304,
            "byteOffset" : 25012
        },
        {
            "buffer" : 0,
            "byteLength" : 1536,
            "byteOffset" : 27316
        },
        {
            "buffer" : 0,
            "byteLength" : 1152,
            "byteOffset" : 28852
        },
        {
            "buffer" : 0,
            "byteLength" : 16,
            "byteOffset" : 30004
        },
        {
            "buffer" : 0,
            "byteLength" : 48,
            "byteOffset" : 30020
        },
        {
            "buffer" : 0,
            "byteLength" : 64,
            "byteOffset" : 30068
        },
        {
            "buffer" : 0,
            "byteLength" : 48,
            "byteOffset" : 30132
        }
    ],
    "buffers" : [
        {
            "byteLength" : 30180,
            "uri" : "data:application/octet-stream;base64,"
        }
    ]
}
