{
    "asset" : {
        "generator" : "Khronos glTF Blender I/O v3.4.50",
        "version" : "2.0"
    },
    "scene" : 0,
    "scenes" : [
        {
            "name" : "Scene",
            "nodes" : [
                0
            ]
        }
    ],
    "nodes" : [
        {
            "mesh" : 0,
            "name" : "Box011_02 - Default_0",
            "rotation" : [
                -0.70710688829422,
                0,
                0,
                0.7071066498756409
            ],
            "scale" : [
                0.005563726183027029,
                0.005276947282254696,
                0.005276947282254696
            ],
            "translation" : [
                0.3442441523075104,
                0.2891049385070801,
                -0.15459752082824707
            ]
        }
    ],
    "materials" : [
        {
            "doubleSided" : true,
            "name" : "02_-_Default.001",
            "normalTexture" : {
                "index" : 0,
                "scale" : 0.5897160768508911
            },
            "pbrMetallicRoughness" : {
                "baseColorTexture" : {
                    "index" : 1
                },
                "metallicFactor" : 0,
                "roughnessFactor" : 0.8681818246841431
            }
        }
    ],
    "meshes" : [
        {
            "name" : "Box011_02 - Default_0.002",
            "primitives" : [
                {
                    "attributes" : {
                        "POSITION" : 0,
                        "TEXCOORD_0" : 1,
                        "NORMAL" : 2
                    },
                    "indices" : 3,
                    "material" : 0
                }
            ]
        }
    ],
    "textures" : [
        {
            "sampler" : 0,
            "source" : 0
        },
        {
            "sampler" : 0,
            "source" : 1
        }
    ],
    "images" : [
        {
            "bufferView" : 4,
            "mimeType" : "image/jpeg",
            "name" : "sofa-normal"
        },
        {
            "bufferView" : 5,
            "mimeType" : "image/jpeg",
            "name" : "sofa"
        }
    ],
    "accessors" : [
        {
            "bufferView" : 0,
            "componentType" : 5126,
            "count" : 1085,
            "max" : [
                207.44287109375,
                112.85514831542969,
                114.79940795898438
            ],
            "min" : [
                -209.4400634765625,
                -72.58099365234375,
                -54.78630828857422
            ],
            "type" : "VEC3"
        },
        {
            "bufferView" : 1,
            "componentType" : 5126,
            "count" : 1085,
            "type" : "VEC2"
        },
        {
            "bufferView" : 2,
            "componentType" : 5126,
            "count" : 1085,
            "type" : "VEC3"
        },
        {
            "bufferView" : 3,
            "componentType" : 5123,
            "count" : 3984,
            "type" : "SCALAR"
        }
    ],
    "bufferViews" : [
        {
            "buffer" : 0,
            "byteLength" : 13020,
            "byteOffset" : 0,
            "target" : 34962
        },
        {
            "buffer" : 0,
            "byteLength" : 8680,
            "byteOffset" : 13020,
            "target" : 34962
        },
        {
            "buffer" : 0,
            "byteLength" : 13020,
            "byteOffset" : 21700,
            "target" : 34962
        },
        {
            "buffer" : 0,
            "byteLength" : 7968,
            "byteOffset" : 34720,
            "target" : 34963
        },
        {
            "buffer" : 0,
            "byteLength" : 114028,
            "byteOffset" : 42688
        },
        {
            "buffer" : 0,
            "byteLength" : 51585,
            "byteOffset" : 156716
        }
    ],
    "samplers" : [
        {
            "magFilter" : 9729,
            "minFilter" : 9987
        }
    ],
    "buffers" : [
        {
            "byteLength" : 208304,
            "uri" : "data:application/octet-stream;base64,"
        }
    ]
}
