{
    "asset" : {
        "generator" : "Khronos glTF Blender I/O v3.4.50",
        "version" : "2.0"
    },
    "scene" : 0,
    "scenes" : [
        {
            "name" : "Scene",
            "nodes" : [
                5
            ]
        }
    ],
    "nodes" : [
        {
            "mesh" : 0,
            "name" : "sofa_sofa_0",
            "translation" : [
                0,
                0,
                3.814698175119702e-06
            ]
        },
        {
            "children" : [
                0
            ],
            "name" : "sofa.001",
            "translation" : [
                0,
                0,
                55.12920379638672
            ]
        },
        {
            "children" : [
                1
            ],
            "name" : "sofa",
            "rotation" : [
                -0.70710688829422,
                0,
                0,
                0.7071066498756409
            ]
        },
        {
            "children" : [
                2
            ],
            "name" : "RootNode"
        },
        {
            "children" : [
                3
            ],
            "name" : "sofa.fbx",
            "rotation" : [
                0.70710688829422,
                0,
                0,
                0.7071066498756409
            ],
            "scale" : [
                0.009999999776482582,
                0.010000000707805157,
                0.010000000707805157
            ]
        },
        {
            "children" : [
                4
            ],
            "name" : "Sketchfab_model",
            "rotation" : [
                -0.70710688829422,
                0,
                0,
                0.7071066498756409
            ]
        }
    ],
    "materials" : [
        {
            "doubleSided" : true,
            "name" : "sofa",
            "normalTexture" : {
                "index" : 0
            },
            "pbrMetallicRoughness" : {
                "baseColorTexture" : {
                    "index" : 1
                },
                "metallicFactor" : 0
            }
        }
    ],
    "meshes" : [
        {
            "name" : "sofa_sofa_0",
            "primitives" : [
                {
                    "attributes" : {
                        "POSITION" : 0,
                        "TEXCOORD_0" : 1,
                        "TEXCOORD_1" : 2,
                        "TEXCOORD_2" : 3,
                        "TEXCOORD_3" : 4,
                        "TEXCOORD_4" : 5,
                        "NORMAL" : 6
                    },
                    "indices" : 7,
                    "material" : 0
                }
            ]
        }
    ],
    "textures" : [
        {
            "sampler" : 0,
            "source" : 0
        },
        {
            "sampler" : 0,
            "source" : 1
        }
    ],
    "images" : [
        {
            "bufferView" : 8,
            "mimeType" : "image/jpeg",
            "name" : "sofa-normal"
        },
        {
            "bufferView" : 9,
            "mimeType" : "image/jpeg",
            "name" : "sofa"
        }
    ],
    "accessors" : [
        {
            "bufferView" : 0,
            "componentType" : 5126,
            "count" : 1939,
            "max" : [
                126.60820007324219,
                50.42198944091797,
                55.210472106933594
            ],
            "min" : [
                -126.60820007324219,
                -50.42198181152344,
                -55.21049880981445
            ],
            "type" : "VEC3"
        },
        {
            "bufferView" : 1,
            "componentType" : 5126,
            "count" : 1939,
            "type" : "VEC2"
        },
        {
            "bufferView" : 2,
            "componentType" : 5126,
            "count" : 1939,
            "type" : "VEC2"
        },
        {
            "bufferView" : 3,
            "componentType" : 5126,
            "count" : 1939,
            "type" : "VEC2"
        },
        {
            "bufferView" : 4,
            "componentType" : 5126,
            "count" : 1939,
            "type" : "VEC2"
        },
        {
            "bufferView" : 5,
            "componentType" : 5126,
            "count" : 1939,
            "type" : "VEC2"
        },
        {
            "bufferView" : 6,
            "componentType" : 5126,
            "count" : 1939,
            "type" : "VEC3"
        },
        {
            "bufferView" : 7,
            "componentType" : 5123,
            "count" : 7542,
            "type" : "SCALAR"
        }
    ],
    "bufferViews" : [
        {
            "buffer" : 0,
            "byteLength" : 23268,
            "byteOffset" : 0,
            "target" : 34962
        },
        {
            "buffer" : 0,
            "byteLength" : 15512,
            "byteOffset" : 23268,
            "target" : 34962
        },
        {
            "buffer" : 0,
            "byteLength" : 15512,
            "byteOffset" : 38780,
            "target" : 34962
        },
        {
            "buffer" : 0,
            "byteLength" : 15512,
            "byteOffset" : 54292,
            "target" : 34962
        },
        {
            "buffer" : 0,
            "byteLength" : 15512,
            "byteOffset" : 69804,
            "target" : 34962
        },
        {
            "buffer" : 0,
            "byteLength" : 15512,
            "byteOffset" : 85316,
            "target" : 34962
        },
        {
            "buffer" : 0,
            "byteLength" : 23268,
            "byteOffset" : 100828,
            "target" : 34962
        },
        {
            "buffer" : 0,
            "byteLength" : 15084,
            "byteOffset" : 124096,
            "target" : 34963
        },
        {
            "buffer" : 0,
            "byteLength" : 70963,
            "byteOffset" : 139180
        },
        {
            "buffer" : 0,
            "byteLength" : 23534,
            "byteOffset" : 210144
        }
    ],
    "samplers" : [
        {
            "magFilter" : 9729,
            "minFilter" : 9987
        }
    ],
    "buffers" : [
        {
            "byteLength" : 233680,
            "uri" : "data:application/octet-stream;base64,"
        }
    ]
}
