{
    "asset" : {
        "generator" : "Khronos glTF Blender I/O v3.2.43",
        "version" : "2.0"
    },
    "scene" : 0,
    "scenes" : [
        {
            "name" : "Scene",
            "nodes" : [
                0
            ]
        }
    ],
    "nodes" : [
        {
            "mesh" : 0,
            "name" : "Cube.007",
            "rotation" : [
                0,
                -0.3037395775318146,
                0,
                0.9527550935745239
            ],
            "scale" : [
                0.21581736207008362,
                0.2041512131690979,
                0.2041512131690979
            ],
            "translation" : [
                0.49779483675956726,
                0.9291541576385498,
                3.1979146003723145
            ]
        }
    ],
    "animations" : [
        {
            "channels" : [
                {
                    "sampler" : 0,
                    "target" : {
                        "node" : 0,
                        "path" : "translation"
                    }
                },
                {
                    "sampler" : 1,
                    "target" : {
                        "node" : 0,
                        "path" : "rotation"
                    }
                },
                {
                    "sampler" : 2,
                    "target" : {
                        "node" : 0,
                        "path" : "scale"
                    }
                }
            ],
            "name" : "Cube.007",
            "samplers" : [
                {
                    "input" : 8,
                    "interpolation" : "LINEAR",
                    "output" : 9
                },
                {
                    "input" : 8,
                    "interpolation" : "LINEAR",
                    "output" : 10
                },
                {
                    "input" : 8,
                    "interpolation" : "LINEAR",
                    "output" : 11
                }
            ]
        }
    ],
    "materials" : [
        {
            "doubleSided" : true,
            "name" : "Material.011",
            "pbrMetallicRoughness" : {
                "baseColorTexture" : {
                    "index" : 0
                },
                "metallicFactor" : 0,
                "roughnessFactor" : 0.30000001192092896
            }
        },
        {
            "doubleSided" : true,
            "name" : "Material.012",
            "pbrMetallicRoughness" : {}
        }
    ],
    "meshes" : [
        {
            "name" : "Cube.009",
            "primitives" : [
                {
                    "attributes" : {
                        "POSITION" : 0,
                        "NORMAL" : 1,
                        "TEXCOORD_0" : 2
                    },
                    "indices" : 3,
                    "material" : 0
                },
                {
                    "attributes" : {
                        "POSITION" : 4,
                        "NORMAL" : 5,
                        "TEXCOORD_0" : 6
                    },
                    "indices" : 7,
                    "material" : 1
                }
            ]
        }
    ],
    "textures" : [
        {
            "sampler" : 0,
            "source" : 0
        }
    ],
    "images" : [
        {
            "bufferView" : 4,
            "mimeType" : "image/jpeg",
            "name" : "20210203_182343-COLLAGE"
        }
    ],
    "accessors" : [
        {
            "bufferView" : 0,
            "componentType" : 5126,
            "count" : 616,
            "max" : [
                1.5353325605392456,
                1.9395171403884888,
                1.5893959999084473
            ],
            "min" : [
                -1.5353327989578247,
                -0.026553470641374588,
                -0.9999999403953552
            ],
            "type" : "VEC3"
        },
        {
            "bufferView" : 1,
            "componentType" : 5126,
            "count" : 616,
            "type" : "VEC3"
        },
        {
            "bufferView" : 2,
            "componentType" : 5126,
            "count" : 616,
            "type" : "VEC2"
        },
        {
            "bufferView" : 3,
            "componentType" : 5123,
            "count" : 2646,
            "type" : "SCALAR"
        },
        {
            "bufferView" : 5,
            "componentType" : 5126,
            "count" : 20,
            "max" : [
                1.4528028964996338,
                1.8800228834152222,
                1.5479596853256226
            ],
            "min" : [
                -1.4528028964996338,
                0.07991917431354523,
                1.0060511827468872
            ],
            "type" : "VEC3"
        },
        {
            "bufferView" : 6,
            "componentType" : 5126,
            "count" : 20,
            "type" : "VEC3"
        },
        {
            "bufferView" : 7,
            "componentType" : 5126,
            "count" : 20,
            "type" : "VEC2"
        },
        {
            "bufferView" : 8,
            "componentType" : 5123,
            "count" : 54,
            "type" : "SCALAR"
        },
        {
            "bufferView" : 9,
            "componentType" : 5126,
            "count" : 4,
            "max" : [
                0.16666666666666666
            ],
            "min" : [
                0.041666666666666664
            ],
            "type" : "SCALAR"
        },
        {
            "bufferView" : 10,
            "componentType" : 5126,
            "count" : 4,
            "type" : "VEC3"
        },
        {
            "bufferView" : 11,
            "componentType" : 5126,
            "count" : 4,
            "type" : "VEC4"
        },
        {
            "bufferView" : 12,
            "componentType" : 5126,
            "count" : 4,
            "type" : "VEC3"
        }
    ],
    "bufferViews" : [
        {
            "buffer" : 0,
            "byteLength" : 7392,
            "byteOffset" : 0
        },
        {
            "buffer" : 0,
            "byteLength" : 7392,
            "byteOffset" : 7392
        },
        {
            "buffer" : 0,
            "byteLength" : 4928,
            "byteOffset" : 14784
        },
        {
            "buffer" : 0,
            "byteLength" : 5292,
            "byteOffset" : 19712
        },
        {
            "buffer" : 0,
            "byteLength" : 83448,
            "byteOffset" : 25004
        },
        {
            "buffer" : 0,
            "byteLength" : 240,
            "byteOffset" : 108452
        },
        {
            "buffer" : 0,
            "byteLength" : 240,
            "byteOffset" : 108692
        },
        {
            "buffer" : 0,
            "byteLength" : 160,
            "byteOffset" : 108932
        },
        {
            "buffer" : 0,
            "byteLength" : 108,
            "byteOffset" : 109092
        },
        {
            "buffer" : 0,
            "byteLength" : 16,
            "byteOffset" : 109200
        },
        {
            "buffer" : 0,
            "byteLength" : 48,
            "byteOffset" : 109216
        },
        {
            "buffer" : 0,
            "byteLength" : 64,
            "byteOffset" : 109264
        },
        {
            "buffer" : 0,
            "byteLength" : 48,
            "byteOffset" : 109328
        }
    ],
    "samplers" : [
        {
            "magFilter" : 9729,
            "minFilter" : 9987
        }
    ],
    "buffers" : [
        {
            "byteLength" : 109376,
            "uri" : "data:application/octet-stream;base64,"
        }
    ]
}
