{
    "asset" : {
        "generator" : "Khronos glTF Blender I/O v3.4.50",
        "version" : "2.0"
    },
    "scene" : 0,
    "scenes" : [
        {
            "name" : "Scene",
            "nodes" : [
                0
            ]
        }
    ],
    "nodes" : [
        {
            "mesh" : 0,
            "name" : "Panel_Base_4"
        }
    ],
    "meshes" : [
        {
            "name" : "Cube.004",
            "primitives" : [
                {
                    "attributes" : {
                        "POSITION" : 0,
                        "TEXCOORD_0" : 1,
                        "NORMAL" : 2
                    },
                    "indices" : 3
                }
            ]
        }
    ],
    "accessors" : [
        {
            "bufferView" : 0,
            "componentType" : 5126,
            "count" : 3612,
            "max" : [
                0.25,
                0.004000000189989805,
                0.25
            ],
            "min" : [
                -0.25,
                -0.004000000189989805,
                -0.25
            ],
            "type" : "VEC3"
        },
        {
            "bufferView" : 1,
            "componentType" : 5126,
            "count" : 3612,
            "type" : "VEC2"
        },
        {
            "bufferView" : 2,
            "componentType" : 5126,
            "count" : 3612,
            "type" : "VEC3"
        },
        {
            "bufferView" : 3,
            "componentType" : 5123,
            "count" : 6783,
            "type" : "SCALAR"
        }
    ],
    "bufferViews" : [
        {
            "buffer" : 0,
            "byteLength" : 43344,
            "byteOffset" : 0,
            "target" : 34962
        },
        {
            "buffer" : 0,
            "byteLength" : 28896,
            "byteOffset" : 43344,
            "target" : 34962
        },
        {
            "buffer" : 0,
            "byteLength" : 43344,
            "byteOffset" : 72240,
            "target" : 34962
        },
        {
            "buffer" : 0,
            "byteLength" : 13566,
            "byteOffset" : 115584,
            "target" : 34963
        }
    ],
    "buffers" : [
        {
            "byteLength" : 129152,
            "uri" : "data:application/octet-stream;base64,"
        }
    ]
}
