{
    "asset" : {
        "generator" : "Khronos glTF Blender I/O v3.2.43",
        "version" : "2.0"
    },
    "scene" : 0,
    "scenes" : [
        {
            "name" : "Scene",
            "nodes" : [
                0
            ]
        }
    ],
    "nodes" : [
        {
            "mesh" : 0,
            "name" : "Panel_Base_1"
        }
    ],
    "meshes" : [
        {
            "name" : "Cube.027",
            "primitives" : [
                {
                    "attributes" : {
                        "POSITION" : 0,
                        "NORMAL" : 1
                    },
                    "indices" : 2
                }
            ]
        }
    ],
    "accessors" : [
        {
            "bufferView" : 0,
            "componentType" : 5126,
            "count" : 18501,
            "max" : [
                0.25,
                0.0040000006556510925,
                0.25
            ],
            "min" : [
                -0.25,
                -0.004000000189989805,
                -0.25
            ],
            "type" : "VEC3"
        },
        {
            "bufferView" : 1,
            "componentType" : 5126,
            "count" : 18501,
            "type" : "VEC3"
        },
        {
            "bufferView" : 2,
            "componentType" : 5123,
            "count" : 61614,
            "type" : "SCALAR"
        }
    ],
    "bufferViews" : [
        {
            "buffer" : 0,
            "byteLength" : 222012,
            "byteOffset" : 0
        },
        {
            "buffer" : 0,
            "byteLength" : 222012,
            "byteOffset" : 222012
        },
        {
            "buffer" : 0,
            "byteLength" : 123228,
            "byteOffset" : 444024
        }
    ],
    "buffers" : [
        {
            "byteLength" : 567252,
            "uri" : "data:application/octet-stream;base64,"
        }
    ]
}
