{
    "asset" : {
        "generator" : "Khronos glTF Blender I/O v3.2.43",
        "version" : "2.0"
    },
    "scene" : 0,
    "scenes" : [
        {
            "name" : "Scene",
            "nodes" : [
                0
            ]
        }
    ],
    "nodes" : [
        {
            "mesh" : 0,
            "name" : "Panel_Base_4"
        }
    ],
    "meshes" : [
        {
            "name" : "Cube.004",
            "primitives" : [
                {
                    "attributes" : {
                        "POSITION" : 0
                    },
                    "indices" : 1
                }
            ]
        }
    ],
    "accessors" : [
        {
            "bufferView" : 0,
            "componentType" : 5126,
            "count" : 1151,
            "max" : [
                0.25,
                0.004000000189989805,
                0.25
            ],
            "min" : [
                -0.25,
                -0.004000000189989805,
                -0.25
            ],
            "type" : "VEC3"
        },
        {
            "bufferView" : 1,
            "componentType" : 5123,
            "count" : 6783,
            "type" : "SCALAR"
        }
    ],
    "bufferViews" : [
        {
            "buffer" : 0,
            "byteLength" : 13812,
            "byteOffset" : 0
        },
        {
            "buffer" : 0,
            "byteLength" : 13566,
            "byteOffset" : 13812
        }
    ],
    "buffers" : [
        {
            "byteLength" : 27380,
            "uri" : "data:application/octet-stream;base64,"
        }
    ]
}
