{
    "asset" : {
        "generator" : "Khronos glTF Blender I/O v3.2.43",
        "version" : "2.0"
    },
    "scene" : 0,
    "scenes" : [
        {
            "name" : "Scene",
            "nodes" : [
                0
            ]
        }
    ],
    "nodes" : [
        {
            "mesh" : 0,
            "name" : "Panel_Base2"
        }
    ],
    "meshes" : [
        {
            "name" : "Cube.003",
            "primitives" : [
                {
                    "attributes" : {
                        "POSITION" : 0,
                        "NORMAL" : 1,
                        "TEXCOORD_0" : 2
                    },
                    "indices" : 3
                }
            ]
        }
    ],
    "accessors" : [
        {
            "bufferView" : 0,
            "componentType" : 5126,
            "count" : 16385,
            "max" : [
                0.25,
                0.0040000006556510925,
                0.25
            ],
            "min" : [
                -0.25,
                -0.004000000189989805,
                -0.25
            ],
            "type" : "VEC3"
        },
        {
            "bufferView" : 1,
            "componentType" : 5126,
            "count" : 16385,
            "type" : "VEC3"
        },
        {
            "bufferView" : 2,
            "componentType" : 5126,
            "count" : 16385,
            "type" : "VEC2"
        },
        {
            "bufferView" : 3,
            "componentType" : 5123,
            "count" : 46908,
            "type" : "SCALAR"
        }
    ],
    "bufferViews" : [
        {
            "buffer" : 0,
            "byteLength" : 196620,
            "byteOffset" : 0
        },
        {
            "buffer" : 0,
            "byteLength" : 196620,
            "byteOffset" : 196620
        },
        {
            "buffer" : 0,
            "byteLength" : 131080,
            "byteOffset" : 393240
        },
        {
            "buffer" : 0,
            "byteLength" : 93816,
            "byteOffset" : 524320
        }
    ],
    "buffers" : [
        {
            "byteLength" : 618136,
            "uri" : "data:application/octet-stream;base64,"
        }
    ]
}
